{
	"patcher" : 	{
		"fileversion" : 1,
		"rect" : [ 50.0, 94.0, 640.0, 480.0 ],
		"bglocked" : 0,
		"defrect" : [ 50.0, 94.0, 640.0, 480.0 ],
		"openrect" : [ 0.0, 0.0, 0.0, 0.0 ],
		"openinpresentation" : 0,
		"default_fontsize" : 12.0,
		"default_fontface" : 0,
		"default_fontname" : "Arial",
		"gridonopen" : 0,
		"gridsize" : [ 15.0, 15.0 ],
		"gridsnaponopen" : 0,
		"toolbarvisible" : 1,
		"boxanimatetime" : 200,
		"imprint" : 0,
		"enablehscroll" : 1,
		"enablevscroll" : 1,
		"devicewidth" : 0.0,
		"boxes" : [ 			{
				"box" : 				{
					"maxclass" : "flonum",
					"outlettype" : [ "float", "bang" ],
					"fontsize" : 12.0,
					"numinlets" : 1,
					"patching_rect" : [ 180.0, 105.0, 50.0, 20.0 ],
					"numoutlets" : 2,
					"id" : "obj-18",
					"fontname" : "Arial"
				}

			}
, 			{
				"box" : 				{
					"maxclass" : "flonum",
					"outlettype" : [ "float", "bang" ],
					"fontsize" : 12.0,
					"numinlets" : 1,
					"patching_rect" : [ 315.0, 180.0, 50.0, 20.0 ],
					"numoutlets" : 2,
					"id" : "obj-17",
					"fontname" : "Arial"
				}

			}
, 			{
				"box" : 				{
					"maxclass" : "comment",
					"text" : "slightly modified from:",
					"fontsize" : 12.0,
					"numinlets" : 1,
					"patching_rect" : [ 30.0, 240.0, 150.0, 20.0 ],
					"numoutlets" : 0,
					"id" : "obj-19",
					"fontname" : "Arial"
				}

			}
, 			{
				"box" : 				{
					"maxclass" : "message",
					"text" : ";\rmax launchbrowser http://www.giri.it",
					"linecount" : 2,
					"outlettype" : [ "" ],
					"fontsize" : 12.0,
					"hidden" : 1,
					"numinlets" : 2,
					"patching_rect" : [ 310.0, 298.0, 203.0, 32.0 ],
					"numoutlets" : 1,
					"id" : "obj-11",
					"fontname" : "Arial"
				}

			}
, 			{
				"box" : 				{
					"maxclass" : "ubutton",
					"outlettype" : [ "bang", "bang", "", "int" ],
					"numinlets" : 1,
					"patching_rect" : [ 388.0, 271.0, 65.0, 21.0 ],
					"handoff" : "",
					"numoutlets" : 4,
					"id" : "obj-12"
				}

			}
, 			{
				"box" : 				{
					"maxclass" : "message",
					"text" : ";\rmax launchbrowser http://www.virtual-sound.com",
					"linecount" : 2,
					"outlettype" : [ "" ],
					"fontsize" : 12.0,
					"hidden" : 1,
					"numinlets" : 2,
					"patching_rect" : [ 36.0, 298.0, 272.0, 32.0 ],
					"numoutlets" : 1,
					"id" : "obj-13",
					"fontname" : "Arial"
				}

			}
, 			{
				"box" : 				{
					"maxclass" : "ubutton",
					"outlettype" : [ "bang", "bang", "", "int" ],
					"numinlets" : 1,
					"patching_rect" : [ 157.0, 271.0, 130.0, 20.0 ],
					"handoff" : "",
					"numoutlets" : 4,
					"id" : "obj-14"
				}

			}
, 			{
				"box" : 				{
					"maxclass" : "comment",
					"text" : "VirtualSound Macros - www.virtual-sound.com - (c) Maurizio Giri - www.giri.it",
					"fontsize" : 12.0,
					"numinlets" : 1,
					"frgb" : [ 0.168627, 0.305882, 0.721569, 1.0 ],
					"patching_rect" : [ 35.0, 271.0, 419.0, 20.0 ],
					"numoutlets" : 0,
					"textcolor" : [ 0.168627, 0.305882, 0.721569, 1.0 ],
					"id" : "obj-15",
					"fontname" : "Arial"
				}

			}
, 			{
				"box" : 				{
					"maxclass" : "newobj",
					"text" : "unpack 0. 0.",
					"outlettype" : [ "float", "float" ],
					"fontsize" : 12.0,
					"numinlets" : 1,
					"patching_rect" : [ 190.0, 45.0, 76.0, 20.0 ],
					"numoutlets" : 2,
					"id" : "obj-1",
					"fontname" : "Arial"
				}

			}
, 			{
				"box" : 				{
					"maxclass" : "newobj",
					"text" : "if $f1==0. then 1 else $f1",
					"outlettype" : [ "" ],
					"fontsize" : 12.0,
					"numinlets" : 1,
					"patching_rect" : [ 273.0, 102.0, 143.0, 20.0 ],
					"numoutlets" : 1,
					"id" : "obj-2",
					"fontname" : "Arial"
				}

			}
, 			{
				"box" : 				{
					"maxclass" : "newobj",
					"text" : "if $f1==0. then 440 else $f1",
					"outlettype" : [ "" ],
					"fontsize" : 12.0,
					"numinlets" : 1,
					"patching_rect" : [ 165.0, 75.0, 156.0, 20.0 ],
					"numoutlets" : 1,
					"id" : "obj-3",
					"fontname" : "Arial"
				}

			}
, 			{
				"box" : 				{
					"maxclass" : "newobj",
					"text" : "loadmess #1 #2",
					"outlettype" : [ "" ],
					"fontsize" : 12.0,
					"numinlets" : 1,
					"patching_rect" : [ 193.0, 18.0, 95.0, 20.0 ],
					"numoutlets" : 1,
					"id" : "obj-4",
					"fontname" : "Arial"
				}

			}
, 			{
				"box" : 				{
					"maxclass" : "outlet",
					"numinlets" : 1,
					"patching_rect" : [ 101.0, 221.0, 25.0, 25.0 ],
					"numoutlets" : 0,
					"id" : "obj-5",
					"comment" : ""
				}

			}
, 			{
				"box" : 				{
					"maxclass" : "inlet",
					"outlettype" : [ "" ],
					"numinlets" : 0,
					"patching_rect" : [ 217.0, 128.0, 25.0, 25.0 ],
					"numoutlets" : 1,
					"id" : "obj-6",
					"comment" : "Q"
				}

			}
, 			{
				"box" : 				{
					"maxclass" : "inlet",
					"outlettype" : [ "" ],
					"numinlets" : 0,
					"patching_rect" : [ 125.0, 128.0, 25.0, 25.0 ],
					"numoutlets" : 1,
					"id" : "obj-7",
					"comment" : "pass frequency"
				}

			}
, 			{
				"box" : 				{
					"maxclass" : "inlet",
					"outlettype" : [ "" ],
					"numinlets" : 0,
					"patching_rect" : [ 101.0, 128.0, 25.0, 25.0 ],
					"numoutlets" : 1,
					"id" : "obj-8",
					"comment" : "input"
				}

			}
, 			{
				"box" : 				{
					"maxclass" : "newobj",
					"text" : "biquad~",
					"outlettype" : [ "signal" ],
					"fontsize" : 12.0,
					"numinlets" : 6,
					"patching_rect" : [ 101.0, 189.0, 136.5, 20.0 ],
					"numoutlets" : 1,
					"id" : "obj-9",
					"fontname" : "Arial"
				}

			}
, 			{
				"box" : 				{
					"maxclass" : "newobj",
					"text" : "filtercoeff~ bandpass",
					"outlettype" : [ "signal", "signal", "signal", "signal", "signal" ],
					"fontsize" : 12.0,
					"numinlets" : 3,
					"patching_rect" : [ 125.0, 157.0, 121.0, 20.0 ],
					"numoutlets" : 5,
					"id" : "obj-10",
					"fontname" : "Arial"
				}

			}
 ],
		"lines" : [ 			{
				"patchline" : 				{
					"source" : [ "obj-2", 0 ],
					"destination" : [ "obj-10", 2 ],
					"hidden" : 0,
					"midpoints" : [  ]
				}

			}
, 			{
				"patchline" : 				{
					"source" : [ "obj-3", 0 ],
					"destination" : [ "obj-10", 0 ],
					"hidden" : 0,
					"midpoints" : [  ]
				}

			}
, 			{
				"patchline" : 				{
					"source" : [ "obj-10", 4 ],
					"destination" : [ "obj-9", 5 ],
					"hidden" : 0,
					"midpoints" : [  ]
				}

			}
, 			{
				"patchline" : 				{
					"source" : [ "obj-10", 3 ],
					"destination" : [ "obj-9", 4 ],
					"hidden" : 0,
					"midpoints" : [  ]
				}

			}
, 			{
				"patchline" : 				{
					"source" : [ "obj-10", 2 ],
					"destination" : [ "obj-9", 3 ],
					"hidden" : 0,
					"midpoints" : [  ]
				}

			}
, 			{
				"patchline" : 				{
					"source" : [ "obj-10", 1 ],
					"destination" : [ "obj-9", 2 ],
					"hidden" : 0,
					"midpoints" : [  ]
				}

			}
, 			{
				"patchline" : 				{
					"source" : [ "obj-10", 0 ],
					"destination" : [ "obj-9", 1 ],
					"hidden" : 0,
					"midpoints" : [  ]
				}

			}
, 			{
				"patchline" : 				{
					"source" : [ "obj-6", 0 ],
					"destination" : [ "obj-10", 2 ],
					"hidden" : 0,
					"midpoints" : [  ]
				}

			}
, 			{
				"patchline" : 				{
					"source" : [ "obj-7", 0 ],
					"destination" : [ "obj-10", 0 ],
					"hidden" : 0,
					"midpoints" : [  ]
				}

			}
, 			{
				"patchline" : 				{
					"source" : [ "obj-3", 0 ],
					"destination" : [ "obj-18", 0 ],
					"hidden" : 0,
					"midpoints" : [  ]
				}

			}
, 			{
				"patchline" : 				{
					"source" : [ "obj-2", 0 ],
					"destination" : [ "obj-17", 0 ],
					"hidden" : 0,
					"midpoints" : [  ]
				}

			}
, 			{
				"patchline" : 				{
					"source" : [ "obj-4", 0 ],
					"destination" : [ "obj-1", 0 ],
					"hidden" : 0,
					"midpoints" : [  ]
				}

			}
, 			{
				"patchline" : 				{
					"source" : [ "obj-8", 0 ],
					"destination" : [ "obj-9", 0 ],
					"hidden" : 0,
					"midpoints" : [  ]
				}

			}
, 			{
				"patchline" : 				{
					"source" : [ "obj-9", 0 ],
					"destination" : [ "obj-5", 0 ],
					"hidden" : 0,
					"midpoints" : [  ]
				}

			}
, 			{
				"patchline" : 				{
					"source" : [ "obj-12", 0 ],
					"destination" : [ "obj-11", 0 ],
					"hidden" : 1,
					"midpoints" : [  ]
				}

			}
, 			{
				"patchline" : 				{
					"source" : [ "obj-14", 0 ],
					"destination" : [ "obj-13", 0 ],
					"hidden" : 1,
					"midpoints" : [  ]
				}

			}
, 			{
				"patchline" : 				{
					"source" : [ "obj-1", 0 ],
					"destination" : [ "obj-3", 0 ],
					"hidden" : 0,
					"midpoints" : [  ]
				}

			}
, 			{
				"patchline" : 				{
					"source" : [ "obj-1", 1 ],
					"destination" : [ "obj-2", 0 ],
					"hidden" : 0,
					"midpoints" : [  ]
				}

			}
 ]
	}

}
