{
	"patcher" : 	{
		"fileversion" : 1,
		"rect" : [ 10.0, 59.0, 600.0, 426.0 ],
		"bglocked" : 0,
		"defrect" : [ 10.0, 59.0, 600.0, 426.0 ],
		"openrect" : [ 0.0, 0.0, 0.0, 0.0 ],
		"openinpresentation" : 0,
		"default_fontsize" : 11.0,
		"default_fontface" : 0,
		"default_fontname" : "Arial",
		"gridonopen" : 0,
		"gridsize" : [ 15.0, 15.0 ],
		"gridsnaponopen" : 0,
		"toolbarvisible" : 1,
		"boxanimatetime" : 200,
		"imprint" : 0,
		"boxes" : [ 			{
				"box" : 				{
					"maxclass" : "newobj",
					"text" : "in 2",
					"numoutlets" : 1,
					"outlettype" : [ "" ],
					"id" : "obj-20",
					"fontname" : "Arial",
					"patching_rect" : [ 165.0, 60.0, 28.0, 19.0 ],
					"fontsize" : 11.0,
					"numinlets" : 1,
					"saved_object_attributes" : 					{

					}

				}

			}
, 			{
				"box" : 				{
					"maxclass" : "newobj",
					"text" : "in 1",
					"numoutlets" : 1,
					"outlettype" : [ "" ],
					"id" : "obj-19",
					"fontname" : "Arial",
					"patching_rect" : [ 120.0, 60.0, 28.0, 19.0 ],
					"fontsize" : 11.0,
					"numinlets" : 1,
					"saved_object_attributes" : 					{

					}

				}

			}
, 			{
				"box" : 				{
					"maxclass" : "newobj",
					"text" : "out~ 1",
					"numoutlets" : 0,
					"id" : "obj-18",
					"fontname" : "Arial",
					"patching_rect" : [ 75.0, 210.0, 41.0, 19.0 ],
					"fontsize" : 11.0,
					"numinlets" : 1,
					"saved_object_attributes" : 					{
						"attr_comment" : ""
					}

				}

			}
, 			{
				"box" : 				{
					"maxclass" : "newobj",
					"text" : "in~ 1",
					"numoutlets" : 1,
					"outlettype" : [ "signal" ],
					"id" : "obj-17",
					"fontname" : "Arial",
					"patching_rect" : [ 90.0, 15.0, 35.0, 19.0 ],
					"fontsize" : 11.0,
					"numinlets" : 1,
					"saved_object_attributes" : 					{
						"attr_comment" : ""
					}

				}

			}
, 			{
				"box" : 				{
					"maxclass" : "flonum",
					"numoutlets" : 2,
					"outlettype" : [ "float", "bang" ],
					"id" : "obj-1",
					"fontname" : "Arial",
					"bgcolor" : [ 0.866667, 0.866667, 0.866667, 1.0 ],
					"htextcolor" : [ 0.870588, 0.870588, 0.870588, 1.0 ],
					"triscale" : 0.9,
					"patching_rect" : [ 203.0, 151.0, 82.0, 17.0 ],
					"fontsize" : 9.0,
					"numinlets" : 1
				}

			}
, 			{
				"box" : 				{
					"maxclass" : "flonum",
					"numoutlets" : 2,
					"outlettype" : [ "float", "bang" ],
					"id" : "obj-2",
					"fontname" : "Arial",
					"bgcolor" : [ 0.866667, 0.866667, 0.866667, 1.0 ],
					"htextcolor" : [ 0.870588, 0.870588, 0.870588, 1.0 ],
					"triscale" : 0.9,
					"patching_rect" : [ 112.0, 151.0, 67.0, 17.0 ],
					"fontsize" : 9.0,
					"numinlets" : 1
				}

			}
, 			{
				"box" : 				{
					"maxclass" : "newobj",
					"text" : "p ms_to_samples",
					"numoutlets" : 1,
					"outlettype" : [ "float" ],
					"id" : "obj-3",
					"fontname" : "Arial",
					"patching_rect" : [ 196.0, 130.0, 88.0, 17.0 ],
					"fontsize" : 9.0,
					"numinlets" : 2,
					"patcher" : 					{
						"fileversion" : 1,
						"rect" : [ 10.0, 59.0, 600.0, 426.0 ],
						"bglocked" : 0,
						"defrect" : [ 10.0, 59.0, 600.0, 426.0 ],
						"openrect" : [ 0.0, 0.0, 0.0, 0.0 ],
						"openinpresentation" : 0,
						"default_fontsize" : 11.0,
						"default_fontface" : 0,
						"default_fontname" : "Arial",
						"gridonopen" : 0,
						"gridsize" : [ 15.0, 15.0 ],
						"gridsnaponopen" : 0,
						"toolbarvisible" : 1,
						"boxanimatetime" : 200,
						"imprint" : 0,
						"boxes" : [ 							{
								"box" : 								{
									"maxclass" : "outlet",
									"numoutlets" : 0,
									"id" : "obj-1",
									"patching_rect" : [ 78.0, 191.0, 15.0, 15.0 ],
									"numinlets" : 1,
									"comment" : "samples"
								}

							}
, 							{
								"box" : 								{
									"maxclass" : "inlet",
									"numoutlets" : 1,
									"outlettype" : [ "int" ],
									"id" : "obj-2",
									"patching_rect" : [ 46.0, 69.0, 15.0, 15.0 ],
									"numinlets" : 0,
									"comment" : "ms"
								}

							}
, 							{
								"box" : 								{
									"maxclass" : "inlet",
									"numoutlets" : 1,
									"outlettype" : [ "int" ],
									"id" : "obj-3",
									"patching_rect" : [ 139.0, 119.0, 15.0, 15.0 ],
									"numinlets" : 0,
									"comment" : "sample rate"
								}

							}
, 							{
								"box" : 								{
									"maxclass" : "newobj",
									"text" : "/ 1000.",
									"numoutlets" : 1,
									"outlettype" : [ "float" ],
									"id" : "obj-4",
									"fontname" : "Arial",
									"patching_rect" : [ 50.0, 110.0, 46.0, 17.0 ],
									"fontsize" : 9.0,
									"numinlets" : 2
								}

							}
, 							{
								"box" : 								{
									"maxclass" : "newobj",
									"text" : "* 1.",
									"numoutlets" : 1,
									"outlettype" : [ "float" ],
									"id" : "obj-5",
									"fontname" : "Arial",
									"patching_rect" : [ 100.0, 159.0, 29.0, 17.0 ],
									"fontsize" : 9.0,
									"numinlets" : 2
								}

							}
 ],
						"lines" : [ 							{
								"patchline" : 								{
									"source" : [ "obj-3", 0 ],
									"destination" : [ "obj-5", 1 ],
									"hidden" : 0,
									"midpoints" : [  ]
								}

							}
, 							{
								"patchline" : 								{
									"source" : [ "obj-4", 0 ],
									"destination" : [ "obj-5", 0 ],
									"hidden" : 0,
									"midpoints" : [  ]
								}

							}
, 							{
								"patchline" : 								{
									"source" : [ "obj-5", 0 ],
									"destination" : [ "obj-1", 0 ],
									"hidden" : 0,
									"midpoints" : [  ]
								}

							}
, 							{
								"patchline" : 								{
									"source" : [ "obj-2", 0 ],
									"destination" : [ "obj-4", 0 ],
									"hidden" : 0,
									"midpoints" : [  ]
								}

							}
 ]
					}
,
					"saved_object_attributes" : 					{
						"fontname" : "Arial",
						"default_fontface" : 0,
						"globalpatchername" : "",
						"default_fontname" : "Arial",
						"fontface" : 0,
						"fontsize" : 11.0,
						"default_fontsize" : 11.0
					}

				}

			}
, 			{
				"box" : 				{
					"maxclass" : "newobj",
					"text" : "b 3",
					"numoutlets" : 3,
					"outlettype" : [ "bang", "bang", "bang" ],
					"id" : "obj-4",
					"fontname" : "Arial",
					"patching_rect" : [ 220.0, 55.0, 40.0, 17.0 ],
					"fontsize" : 9.0,
					"numinlets" : 1
				}

			}
, 			{
				"box" : 				{
					"maxclass" : "number",
					"numoutlets" : 2,
					"outlettype" : [ "int", "bang" ],
					"id" : "obj-5",
					"fontname" : "Arial",
					"bgcolor" : [ 0.866667, 0.866667, 0.866667, 1.0 ],
					"htextcolor" : [ 0.870588, 0.870588, 0.870588, 1.0 ],
					"triscale" : 0.9,
					"patching_rect" : [ 423.0, 109.0, 49.0, 17.0 ],
					"fontsize" : 9.0,
					"numinlets" : 1
				}

			}
, 			{
				"box" : 				{
					"maxclass" : "newobj",
					"text" : "adstatus sr",
					"numoutlets" : 2,
					"outlettype" : [ "", "int" ],
					"id" : "obj-6",
					"fontname" : "Arial",
					"patching_rect" : [ 374.0, 84.0, 59.0, 17.0 ],
					"color" : [ 1.0, 0.890196, 0.090196, 1.0 ],
					"fontsize" : 9.0,
					"numinlets" : 2
				}

			}
, 			{
				"box" : 				{
					"maxclass" : "newobj",
					"text" : "p ms_to_samples",
					"numoutlets" : 1,
					"outlettype" : [ "float" ],
					"id" : "obj-7",
					"fontname" : "Arial",
					"patching_rect" : [ 91.0, 130.0, 88.0, 17.0 ],
					"fontsize" : 9.0,
					"numinlets" : 2,
					"patcher" : 					{
						"fileversion" : 1,
						"rect" : [ 10.0, 59.0, 600.0, 426.0 ],
						"bglocked" : 0,
						"defrect" : [ 10.0, 59.0, 600.0, 426.0 ],
						"openrect" : [ 0.0, 0.0, 0.0, 0.0 ],
						"openinpresentation" : 0,
						"default_fontsize" : 11.0,
						"default_fontface" : 0,
						"default_fontname" : "Arial",
						"gridonopen" : 0,
						"gridsize" : [ 15.0, 15.0 ],
						"gridsnaponopen" : 0,
						"toolbarvisible" : 1,
						"boxanimatetime" : 200,
						"imprint" : 0,
						"boxes" : [ 							{
								"box" : 								{
									"maxclass" : "outlet",
									"numoutlets" : 0,
									"id" : "obj-1",
									"patching_rect" : [ 78.0, 191.0, 15.0, 15.0 ],
									"numinlets" : 1,
									"comment" : "samples"
								}

							}
, 							{
								"box" : 								{
									"maxclass" : "inlet",
									"numoutlets" : 1,
									"outlettype" : [ "int" ],
									"id" : "obj-2",
									"patching_rect" : [ 46.0, 69.0, 15.0, 15.0 ],
									"numinlets" : 0,
									"comment" : "ms"
								}

							}
, 							{
								"box" : 								{
									"maxclass" : "inlet",
									"numoutlets" : 1,
									"outlettype" : [ "int" ],
									"id" : "obj-3",
									"patching_rect" : [ 139.0, 119.0, 15.0, 15.0 ],
									"numinlets" : 0,
									"comment" : "sample rate"
								}

							}
, 							{
								"box" : 								{
									"maxclass" : "newobj",
									"text" : "/ 1000.",
									"numoutlets" : 1,
									"outlettype" : [ "float" ],
									"id" : "obj-4",
									"fontname" : "Arial",
									"patching_rect" : [ 50.0, 110.0, 46.0, 17.0 ],
									"fontsize" : 9.0,
									"numinlets" : 2
								}

							}
, 							{
								"box" : 								{
									"maxclass" : "newobj",
									"text" : "* 1.",
									"numoutlets" : 1,
									"outlettype" : [ "float" ],
									"id" : "obj-5",
									"fontname" : "Arial",
									"patching_rect" : [ 100.0, 159.0, 29.0, 17.0 ],
									"fontsize" : 9.0,
									"numinlets" : 2
								}

							}
 ],
						"lines" : [ 							{
								"patchline" : 								{
									"source" : [ "obj-3", 0 ],
									"destination" : [ "obj-5", 1 ],
									"hidden" : 0,
									"midpoints" : [  ]
								}

							}
, 							{
								"patchline" : 								{
									"source" : [ "obj-4", 0 ],
									"destination" : [ "obj-5", 0 ],
									"hidden" : 0,
									"midpoints" : [  ]
								}

							}
, 							{
								"patchline" : 								{
									"source" : [ "obj-5", 0 ],
									"destination" : [ "obj-1", 0 ],
									"hidden" : 0,
									"midpoints" : [  ]
								}

							}
, 							{
								"patchline" : 								{
									"source" : [ "obj-2", 0 ],
									"destination" : [ "obj-4", 0 ],
									"hidden" : 0,
									"midpoints" : [  ]
								}

							}
 ]
					}
,
					"saved_object_attributes" : 					{
						"fontname" : "Arial",
						"default_fontface" : 0,
						"globalpatchername" : "",
						"default_fontname" : "Arial",
						"fontface" : 0,
						"fontsize" : 11.0,
						"default_fontsize" : 11.0
					}

				}

			}
, 			{
				"box" : 				{
					"maxclass" : "newobj",
					"text" : "int #2",
					"numoutlets" : 1,
					"outlettype" : [ "int" ],
					"id" : "obj-8",
					"fontname" : "Arial",
					"patching_rect" : [ 198.0, 97.0, 38.0, 17.0 ],
					"fontsize" : 9.0,
					"numinlets" : 2
				}

			}
, 			{
				"box" : 				{
					"maxclass" : "inlet",
					"numoutlets" : 1,
					"outlettype" : [ "" ],
					"id" : "obj-9",
					"patching_rect" : [ 197.0, 73.0, 15.0, 15.0 ],
					"numinlets" : 0,
					"comment" : "decay time (ms)"
				}

			}
, 			{
				"box" : 				{
					"maxclass" : "newobj",
					"text" : "int #1",
					"numoutlets" : 1,
					"outlettype" : [ "int" ],
					"id" : "obj-10",
					"fontname" : "Arial",
					"patching_rect" : [ 93.0, 97.0, 50.0, 17.0 ],
					"fontsize" : 9.0,
					"numinlets" : 2
				}

			}
, 			{
				"box" : 				{
					"maxclass" : "newobj",
					"text" : "loadbang",
					"numoutlets" : 1,
					"outlettype" : [ "bang" ],
					"id" : "obj-11",
					"fontname" : "Arial",
					"patching_rect" : [ 220.0, 32.0, 83.0, 17.0 ],
					"fontsize" : 9.0,
					"numinlets" : 1
				}

			}
, 			{
				"box" : 				{
					"maxclass" : "inlet",
					"numoutlets" : 1,
					"outlettype" : [ "" ],
					"id" : "obj-12",
					"patching_rect" : [ 92.0, 69.0, 15.0, 15.0 ],
					"numinlets" : 0,
					"comment" : "attack time (ms)"
				}

			}
, 			{
				"box" : 				{
					"maxclass" : "newobj",
					"text" : "slide~ 500 2000",
					"numoutlets" : 1,
					"outlettype" : [ "signal" ],
					"id" : "obj-13",
					"fontname" : "Arial",
					"patching_rect" : [ 51.0, 173.0, 85.0, 17.0 ],
					"fontsize" : 9.0,
					"numinlets" : 3
				}

			}
, 			{
				"box" : 				{
					"maxclass" : "newobj",
					"text" : "*~",
					"numoutlets" : 1,
					"outlettype" : [ "signal" ],
					"id" : "obj-14",
					"fontname" : "Arial",
					"patching_rect" : [ 51.0, 50.0, 27.0, 17.0 ],
					"fontsize" : 9.0,
					"numinlets" : 2
				}

			}
, 			{
				"box" : 				{
					"maxclass" : "inlet",
					"numoutlets" : 1,
					"outlettype" : [ "" ],
					"id" : "obj-15",
					"patching_rect" : [ 51.0, 30.0, 15.0, 15.0 ],
					"numinlets" : 0,
					"comment" : "signal to follow"
				}

			}
, 			{
				"box" : 				{
					"maxclass" : "outlet",
					"numoutlets" : 0,
					"id" : "obj-16",
					"patching_rect" : [ 51.0, 195.0, 15.0, 15.0 ],
					"numinlets" : 1,
					"comment" : ""
				}

			}
 ],
		"lines" : [ 			{
				"patchline" : 				{
					"source" : [ "obj-13", 0 ],
					"destination" : [ "obj-18", 0 ],
					"hidden" : 0,
					"midpoints" : [  ]
				}

			}
, 			{
				"patchline" : 				{
					"source" : [ "obj-17", 0 ],
					"destination" : [ "obj-14", 1 ],
					"hidden" : 0,
					"midpoints" : [  ]
				}

			}
, 			{
				"patchline" : 				{
					"source" : [ "obj-17", 0 ],
					"destination" : [ "obj-14", 0 ],
					"hidden" : 0,
					"midpoints" : [  ]
				}

			}
, 			{
				"patchline" : 				{
					"source" : [ "obj-6", 1 ],
					"destination" : [ "obj-5", 0 ],
					"hidden" : 0,
					"midpoints" : [  ]
				}

			}
, 			{
				"patchline" : 				{
					"source" : [ "obj-4", 2 ],
					"destination" : [ "obj-6", 0 ],
					"hidden" : 0,
					"midpoints" : [  ]
				}

			}
, 			{
				"patchline" : 				{
					"source" : [ "obj-5", 0 ],
					"destination" : [ "obj-3", 1 ],
					"hidden" : 0,
					"midpoints" : [  ]
				}

			}
, 			{
				"patchline" : 				{
					"source" : [ "obj-11", 0 ],
					"destination" : [ "obj-4", 0 ],
					"hidden" : 0,
					"midpoints" : [  ]
				}

			}
, 			{
				"patchline" : 				{
					"source" : [ "obj-3", 0 ],
					"destination" : [ "obj-1", 0 ],
					"hidden" : 0,
					"midpoints" : [  ]
				}

			}
, 			{
				"patchline" : 				{
					"source" : [ "obj-9", 0 ],
					"destination" : [ "obj-8", 0 ],
					"hidden" : 0,
					"midpoints" : [  ]
				}

			}
, 			{
				"patchline" : 				{
					"source" : [ "obj-4", 1 ],
					"destination" : [ "obj-8", 0 ],
					"hidden" : 0,
					"midpoints" : [  ]
				}

			}
, 			{
				"patchline" : 				{
					"source" : [ "obj-8", 0 ],
					"destination" : [ "obj-3", 0 ],
					"hidden" : 0,
					"midpoints" : [  ]
				}

			}
, 			{
				"patchline" : 				{
					"source" : [ "obj-5", 0 ],
					"destination" : [ "obj-7", 1 ],
					"hidden" : 0,
					"midpoints" : [  ]
				}

			}
, 			{
				"patchline" : 				{
					"source" : [ "obj-3", 0 ],
					"destination" : [ "obj-13", 2 ],
					"hidden" : 0,
					"midpoints" : [  ]
				}

			}
, 			{
				"patchline" : 				{
					"source" : [ "obj-7", 0 ],
					"destination" : [ "obj-2", 0 ],
					"hidden" : 0,
					"midpoints" : [  ]
				}

			}
, 			{
				"patchline" : 				{
					"source" : [ "obj-12", 0 ],
					"destination" : [ "obj-10", 0 ],
					"hidden" : 0,
					"midpoints" : [  ]
				}

			}
, 			{
				"patchline" : 				{
					"source" : [ "obj-4", 0 ],
					"destination" : [ "obj-10", 0 ],
					"hidden" : 0,
					"midpoints" : [  ]
				}

			}
, 			{
				"patchline" : 				{
					"source" : [ "obj-10", 0 ],
					"destination" : [ "obj-7", 0 ],
					"hidden" : 0,
					"midpoints" : [  ]
				}

			}
, 			{
				"patchline" : 				{
					"source" : [ "obj-7", 0 ],
					"destination" : [ "obj-13", 1 ],
					"hidden" : 0,
					"midpoints" : [  ]
				}

			}
, 			{
				"patchline" : 				{
					"source" : [ "obj-15", 0 ],
					"destination" : [ "obj-14", 1 ],
					"hidden" : 0,
					"midpoints" : [  ]
				}

			}
, 			{
				"patchline" : 				{
					"source" : [ "obj-13", 0 ],
					"destination" : [ "obj-16", 0 ],
					"hidden" : 0,
					"midpoints" : [  ]
				}

			}
, 			{
				"patchline" : 				{
					"source" : [ "obj-14", 0 ],
					"destination" : [ "obj-13", 0 ],
					"hidden" : 0,
					"midpoints" : [  ]
				}

			}
, 			{
				"patchline" : 				{
					"source" : [ "obj-15", 0 ],
					"destination" : [ "obj-14", 0 ],
					"hidden" : 0,
					"midpoints" : [  ]
				}

			}
, 			{
				"patchline" : 				{
					"source" : [ "obj-19", 0 ],
					"destination" : [ "obj-10", 0 ],
					"hidden" : 0,
					"midpoints" : [  ]
				}

			}
, 			{
				"patchline" : 				{
					"source" : [ "obj-20", 0 ],
					"destination" : [ "obj-8", 0 ],
					"hidden" : 0,
					"midpoints" : [  ]
				}

			}
 ]
	}

}
