{
	"patcher" : 	{
		"fileversion" : 1,
		"appversion" : 		{
			"major" : 8,
			"minor" : 5,
			"revision" : 2,
			"architecture" : "x64",
			"modernui" : 1
		}
,
		"classnamespace" : "dsp.gen",
		"rect" : [ 2201.0, 415.0, 1483.0, 534.0 ],
		"bglocked" : 0,
		"openinpresentation" : 0,
		"default_fontsize" : 12.0,
		"default_fontface" : 0,
		"default_fontname" : "Arial",
		"gridonopen" : 1,
		"gridsize" : [ 15.0, 15.0 ],
		"gridsnaponopen" : 1,
		"objectsnaponopen" : 1,
		"statusbarvisible" : 2,
		"toolbarvisible" : 1,
		"lefttoolbarpinned" : 0,
		"toptoolbarpinned" : 0,
		"righttoolbarpinned" : 0,
		"bottomtoolbarpinned" : 0,
		"toolbars_unpinned_last_save" : 15,
		"tallnewobj" : 0,
		"boxanimatetime" : 200,
		"enablehscroll" : 1,
		"enablevscroll" : 1,
		"devicewidth" : 0.0,
		"description" : "",
		"digest" : "",
		"tags" : "",
		"style" : "test",
		"subpatcher_template" : "myTrackTemplate",
		"assistshowspatchername" : 0,
		"boxes" : [ 			{
				"box" : 				{
					"id" : "obj-8",
					"maxclass" : "comment",
					"numinlets" : 1,
					"numoutlets" : 0,
					"patching_rect" : [ 154.99999463558197, 14.0, 42.0, 20.0 ],
					"text" : "t*[sec]"
				}

			}
, 			{
				"box" : 				{
					"id" : "obj-7",
					"maxclass" : "comment",
					"numinlets" : 1,
					"numoutlets" : 0,
					"patching_rect" : [ 80.0, 14.0, 37.0, 20.0 ],
					"text" : "t[sec]"
				}

			}
, 			{
				"box" : 				{
					"code" : "t = in1;\r\nt_s = in2;\r\nfrac = t/t_s;\r\n\r\nout1 =  exp(-frac)*(1-frac);",
					"fontface" : 0,
					"fontname" : "Lucida Console",
					"fontsize" : 12.0,
					"id" : "obj-5",
					"maxclass" : "codebox",
					"numinlets" : 2,
					"numoutlets" : 1,
					"outlettype" : [ "" ],
					"patching_rect" : [ 50.0, 59.999994575977325, 494.000008761882782, 232.000000953674316 ]
				}

			}
, 			{
				"box" : 				{
					"id" : "obj-1",
					"maxclass" : "newobj",
					"numinlets" : 0,
					"numoutlets" : 1,
					"outlettype" : [ "" ],
					"patching_rect" : [ 50.0, 14.0, 28.0, 22.0 ],
					"text" : "in 1"
				}

			}
, 			{
				"box" : 				{
					"id" : "obj-2",
					"maxclass" : "newobj",
					"numinlets" : 0,
					"numoutlets" : 1,
					"outlettype" : [ "" ],
					"patching_rect" : [ 124.99999463558197, 14.0, 28.0, 22.0 ],
					"text" : "in 2"
				}

			}
, 			{
				"box" : 				{
					"id" : "obj-4",
					"maxclass" : "newobj",
					"numinlets" : 1,
					"numoutlets" : 0,
					"patching_rect" : [ 50.0, 327.333330631256104, 35.0, 22.0 ],
					"text" : "out 1"
				}

			}
 ],
		"lines" : [ 			{
				"patchline" : 				{
					"destination" : [ "obj-5", 0 ],
					"source" : [ "obj-1", 0 ]
				}

			}
, 			{
				"patchline" : 				{
					"destination" : [ "obj-5", 1 ],
					"midpoints" : [ 134.49999463558197, 45.333334684371948, 534.500008761882782, 45.333334684371948 ],
					"source" : [ "obj-2", 0 ]
				}

			}
, 			{
				"patchline" : 				{
					"destination" : [ "obj-4", 0 ],
					"source" : [ "obj-5", 0 ]
				}

			}
 ],
		"styles" : [ 			{
				"name" : "test",
				"default" : 				{
					"accentcolor" : [ 0.309803921568627, 0.309803921568627, 0.309803921568627, 1.0 ],
					"bgcolor" : [ 0.156863, 0.156863, 0.196078, 1.0 ],
					"bgfillcolor" : 					{
						"angle" : 269.577713564497685,
						"autogradient" : 0.0,
						"color" : [ 0.192156862745098, 0.215686274509804, 0.23921568627451, 1.0 ],
						"color1" : [ 0.192156862745098, 0.215686274509804, 0.23921568627451, 1.0 ],
						"color2" : [ 0.117536, 0.116592, 0.144338, 1.0 ],
						"proportion" : 0.39,
						"pt1" : [ 0.504951, 0.278261 ],
						"pt2" : [ 0.5, 0.95 ],
						"type" : "gradient"
					}
,
					"color" : [ 0.792156862745098, 0.415686274509804, 0.0, 1.0 ],
					"editing_bgcolor" : [ 0.2, 0.2, 0.2, 1.0 ],
					"elementcolor" : [ 0.304814, 0.254902, 0.278431, 1.0 ],
					"fontname" : [ "Arial" ],
					"locked_bgcolor" : [ 0.2, 0.2, 0.2, 1.0 ],
					"textcolor" : [ 0.643137254901961, 0.643137254901961, 0.643137254901961, 1.0 ]
				}
,
				"parentstyle" : "",
				"multi" : 0
			}
 ]
	}

}
